<?xml version="1.0" encoding="iso-8859-1"?>
<!-- Generator: Adobe Illustrator 19.0.0, SVG Export Plug-In . SVG Version: 6.00 Build 0)  -->
<svg version="1.1" id="Capa_1" xmlns="http://www.w3.org/2000/svg" xmlns:xlink="http://www.w3.org/1999/xlink" x="0px" y="0px"
	 viewBox="0 0 480.009 480.009" style="enable-background:new 0 0 480.009 480.009;" xml:space="preserve">
<g>
	<g>
		<path d="M456.009,194.854h-424v-24h8v8h16v-32h-16v8h-8v-88c0.04-17.673,14.399-31.968,32.072-31.928
			c15.059,0.034,28.057,10.563,31.216,25.288c-13.736,3.864-23.242,16.371-23.288,30.64v16c0,4.418,3.582,8,8,8h48
			c4.418,0,8-3.582,8-8v-16c-0.04-14.781-10.198-27.611-24.576-31.04c-4.09-26.192-28.638-44.11-54.83-40.02
			c-23.231,3.627-40.415,23.549-40.594,47.06v129.472C3.59,200.632-2.986,214.19,1.32,226.609c1.336,3.853,3.639,7.298,6.689,10.004
			v94.24c0.066,57.41,46.59,103.934,104,104h4.688l-14.624,14.632l11.312,11.312l25.936-25.944h201.376l25.936,25.944l11.312-11.312
			l-14.624-14.632h4.688c57.41-0.066,103.934-46.59,104-104v-94.24c5.07-4.514,7.979-10.972,8-17.76
			C480.009,205.599,469.264,194.854,456.009,194.854z M104.009,74.854c8.837,0,16,7.163,16,16v8h-32v-8
			C88.009,82.017,95.173,74.854,104.009,74.854z M456.009,330.854c-0.057,48.577-39.423,87.943-88,88h-256
			c-48.577-0.057-87.943-39.423-88-88v-88h432V330.854z M456.009,226.854h-432c-4.418,0-8-3.582-8-8s3.582-8,8-8h432
			c4.418,0,8,3.582,8,8S460.428,226.854,456.009,226.854z"/>
	</g>
</g>
<g>
	<g>
		<rect x="120.009" y="122.854" width="16" height="16"/>
	</g>
</g>
<g>
	<g>
		<rect x="120.009" y="154.854" width="16" height="32"/>
	</g>
</g>
<g>
	<g>
		<rect x="96.009" y="122.854" width="16" height="16"/>
	</g>
</g>
<g>
	<g>
		<rect x="96.009" y="154.854" width="16" height="32"/>
	</g>
</g>
<g>
	<g>
		<rect x="72.009" y="122.854" width="16" height="16"/>
	</g>
</g>
<g>
	<g>
		<rect x="72.009" y="154.854" width="16" height="32"/>
	</g>
</g>
<g>
</g>
<g>
</g>
<g>
</g>
<g>
</g>
<g>
</g>
<g>
</g>
<g>
</g>
<g>
</g>
<g>
</g>
<g>
</g>
<g>
</g>
<g>
</g>
<g>
</g>
<g>
</g>
<g>
</g>
</svg>
