<svg id="Layer_5" enable-background="new 0 0 64 64" height="512" viewBox="0 0 64 64" width="512" xmlns="http://www.w3.org/2000/svg"><g><g><g><path d="m18 23v25h-5.34c-1.06 0-2.08-.42-2.83-1.17l-3.91-3.91c-1.23-1.23-1.92-2.9-1.92-4.64 0-1.03.24-2.03.69-2.93s1.11-1.7 1.94-2.32l5.37-4.03v-2c0-2.21 1.79-4 4-4z" fill="#b4dd7f"/></g><g><path d="m58.98 48.5c1.74.29 3.02 1.8 3.02 3.56 0 1.21-.6 2.34-1.61 3.01l-4.39 2.93h-9l-7.33 3.26c-1.1.49-2.29.74-3.49.74-2.05 0-4.04-.73-5.59-2.07l-2.51-2.15c-1.35-1.16-2.31-2.71-2.74-4.44l-.58-2.31c-.36-1.4-1.43-2.48-2.76-2.87v-22.16c5 0 5 4 10 4s5-4 10-4c1.27 0 2.21.26 3 .64v8.83c0 2.02 1.5 3.72 3.5 3.97l2.1.26c1.48.18 2.73 1.17 3.25 2.56l1.34 3.58c.5 1.34 1.68 2.3 3.09 2.54z" fill="#b4dd7f"/></g><g><path d="m22 9.46c-.59.34-1.27.54-2 .54s-1.41-.2-2-.54c-1.2-.69-2-1.98-2-3.46 0-2.21 1.79-4 4-4s4 1.79 4 4c0 1.48-.8 2.77-2 3.46z" fill="#e6e9ed"/></g><g><path d="m52 14v16c-3.73 0-4.68-2.23-7-3.36-.79-.38-1.73-.64-3-.64-5 0-5 4-10 4s-5-4-10-4v-16c5 0 5 4 10 4s5-4 10-4 5 4 10 4z" fill="#fcd770"/></g><g><path d="m22 10v16 22.16c-.36-.1-.73-.16-1.12-.16h-2.88v-25-13.54c.59.34 1.27.54 2 .54s1.41-.2 2-.54z" fill="#cf9e76"/></g><g><path d="m17 57 3.04.43c2.27.33 3.96 2.27 3.96 4.57h-17.7c-1.44 0-2.78-.72-3.58-1.92-.47-.7-.72-1.53-.72-2.38 0-.84.22-1.65.62-2.35.4-.71.98-1.31 1.69-1.74l.81-.48c1.23-.74 2.64-1.13 4.07-1.13 1.21 0 2.37.27 3.43.78s2 1.25 2.76 2.19z" fill="#ccd1d9"/></g></g><g><path d="m20.182 56.444-2.648-.378-1.374-1.718c-1.703-2.128-4.242-3.348-6.967-3.348-1.616 0-3.203.439-4.589 1.271l-.807.484c-1.725 1.036-2.797 2.929-2.797 4.942 0 1.051.308 2.068.891 2.942.986 1.478 2.634 2.361 4.412 2.361h18.697v-1c0-2.775-2.071-5.164-4.818-5.556zm-13.879 4.556c-1.106 0-2.134-.55-2.748-1.471-.364-.544-.555-1.177-.555-1.832 0-1.314.7-2.551 1.827-3.228l.807-.484c1.075-.644 2.305-.985 3.559-.985 2.113 0 4.083.947 5.403 2.597l.596.745-3.128.626-2.748-.916-.633 1.897 3.252 1.084 5.092-1.019 2.871.41c1.427.204 2.57 1.244 2.959 2.576z"/><path d="m59.142 47.51-.7-.117c-1.053-.176-1.94-.906-2.315-1.906l-1.34-3.574c-.655-1.747-2.212-2.975-4.063-3.206l-2.096-.262c-1.498-.186-2.628-1.466-2.628-2.976v-6.984c.124.097.248.196.374.296 1.301 1.04 2.774 2.219 5.626 2.219h1v-18h-1c-2.149 0-3.182-.825-4.376-1.781-1.301-1.04-2.774-2.219-5.626-2.219s-4.326 1.179-5.627 2.219c-1.194.956-2.226 1.781-4.376 1.781-2.147 0-3.179-.825-4.372-1.781-.989-.791-2.083-1.66-3.803-2.032.725-.868 1.18-1.97 1.18-3.187 0-2.757-2.243-5-5-5s-5 2.243-5 5c0 1.627.793 3.061 2 3.974v12.026h-1c-2.757 0-5 2.243-5 5v1.5l-4.975 3.731c-1.894 1.421-3.025 3.683-3.025 6.051 0 2.02.786 3.919 2.215 5.348l3.906 3.906c.944.944 2.2 1.464 3.536 1.464h8.22c1.379 0 2.576.935 2.911 2.272l.578 2.314c.484 1.94 1.543 3.653 3.063 4.955l2.509 2.15c1.736 1.489 3.952 2.309 6.24 2.309 1.351 0 2.66-.278 3.895-.827l7.139-3.173h9.091l4.642-3.094c1.286-.859 2.055-2.295 2.055-3.842 0-2.266-1.622-4.181-3.858-4.554zm-27.147-32.51c2.851 0 4.325-1.179 5.626-2.219 1.194-.956 2.227-1.781 4.377-1.781 2.149 0 3.182.825 4.376 1.781 1.14.911 2.412 1.929 4.626 2.167v13.984c-1.503-.215-2.384-.919-3.376-1.713-1.301-1.04-2.774-2.219-5.626-2.219s-4.326 1.179-5.627 2.219c-1.194.956-2.226 1.781-4.376 1.781-2.147 0-3.179-.825-4.372-1.781-1.138-.911-2.41-1.928-4.623-2.167v-13.976c1.496.217 2.384.912 3.373 1.704 1.3 1.041 2.773 2.22 5.622 2.22zm-11.995-12c1.654 0 3 1.346 3 3s-1.346 3-3 3-3-1.346-3-3 1.346-3 3-3zm-9.465 43.122-3.906-3.906c-1.051-1.051-1.629-2.448-1.629-3.934 0-1.742.832-3.406 2.225-4.451l5.775-4.331v-2.5c0-1.654 1.346-3 3-3h1v23h-4.343c-.802 0-1.555-.312-2.122-.878zm8.465.878v-36.101c.323.066.658.101 1 .101s.677-.035 1-.101v36.111c-.042-.001-.081-.01-.123-.01zm40.835 7.242-4.138 2.758h-8.909l-7.528 3.346c-2.632 1.168-5.835.701-8.021-1.173l-2.509-2.15c-1.202-1.03-2.04-2.386-2.424-3.921l-.578-2.314c-.374-1.496-1.402-2.675-2.728-3.299v-20.413c1.496.217 2.384.912 3.373 1.704 1.3 1.04 2.772 2.219 5.622 2.219 2.851 0 4.325-1.179 5.626-2.219 1.194-.955 2.227-1.78 4.377-1.78.8 0 1.445.115 2.002.308v8.161c0 2.517 1.883 4.65 4.38 4.961l2.096.262c1.11.139 2.045.875 2.438 1.923l1.34 3.574c.626 1.667 2.104 2.884 3.86 3.176l.699.117c1.267.212 2.187 1.298 2.187 2.582 0 .877-.436 1.691-1.165 2.178z"/></g></g></svg>